<svg width="2295" height="500" viewBox="0 0 2295 500" fill="none" xmlns="http://www.w3.org/2000/svg">
<g clip-path="url(#clip0_1_68)">
<g clip-path="url(#clip1_1_68)">
<path d="M250 480C377.025 480 480 377.025 480 250C480 122.975 377.025 20 250 20C122.975 20 20 122.975 20 250C20 377.025 122.975 480 250 480Z" fill="#E8F8FF"/>
<path opacity="0.8" d="M250 450C327.32 450 390 441.046 390 430C390 418.954 327.32 410 250 410C172.68 410 110 418.954 110 430C110 441.046 172.68 450 250 450Z" fill="#D5D8DC"/>
<path d="M190 130C99.9999 20 19.9999 100 49.9999 220" stroke="#FF5E5E" stroke-width="8" stroke-linecap="round"/>
<path d="M310 130C400 20 480 100 450 220" stroke="#FF5E5E" stroke-width="8" stroke-linecap="round"/>
<path d="M180 250C140 236.667 123.333 243.333 130 270" stroke="#E04040" stroke-width="14" stroke-linecap="round"/>
<path d="M180 280C133.333 280 116.667 290 130 310" stroke="#E04040" stroke-width="14" stroke-linecap="round"/>
<path d="M320 250C360 236.667 376.667 243.333 370 270" stroke="#E04040" stroke-width="14" stroke-linecap="round"/>
<path d="M320 280C366.667 280 383.333 290 370 310" stroke="#E04040" stroke-width="14" stroke-linecap="round"/>
<path d="M220 390C180 440 160 400 210 370L220 390Z" fill="#E04040"/>
<path d="M280 390C320 440 340 400 290 370L280 390Z" fill="#E04040"/>
<path d="M230 400C230 450 270 450 270 400H230Z" fill="#E04040"/>
<path d="M190 280H310C316.667 360 296.667 403.333 250 410C203.333 403.333 183.333 360 190 280Z" fill="#FF5E5E"/>
<path d="M188 310C229.333 323.333 270.667 323.333 312 310" stroke="#E04040" stroke-width="8" stroke-linecap="round"/>
<path d="M194 345C231.333 358.333 268.667 358.333 306 345" stroke="#E04040" stroke-width="8" stroke-linecap="round"/>
<path d="M205 380C235 393.333 265 393.333 295 380" stroke="#E04040" stroke-width="8" stroke-linecap="round"/>
<path d="M145.529 347.956C191.068 363.361 222.803 327.25 240.735 239.623" stroke="#FF5E5E" stroke-width="35" stroke-linecap="round"/>
<path d="M152 372.104C165.336 368.53 173.251 354.822 169.677 341.485C166.104 328.148 152.395 320.234 139.059 323.807C125.722 327.381 117.808 341.089 121.381 354.426C124.955 367.763 138.663 375.677 152 372.104Z" fill="#E04040"/>
<path d="M145.529 347.956C196.76 365.286 228.58 310.173 202.444 270.589C176.309 231.004 157.937 220.398 151.213 253.258C144.489 286.118 152.253 315.095 145.529 347.956Z" fill="#E04040"/>
<path d="M145.529 347.956C66.3605 400.227 -15.9291 266.985 22.6151 179.011C50.5526 109.409 90.1369 83.2733 134.644 133.464C179.151 183.655 155.096 267.747 145.529 347.956Z" fill="#FF5E5E"/>
<path opacity="0.5" d="M121.034 333.813C68.2553 368.661 10.8074 270.174 43.5745 199.277C57.7167 174.782 84.1063 157.359 108.601 171.501C84.7998 198.584 76.5275 283.622 121.034 333.813Z" fill="#FFC2C2"/>
<path d="M135.342 232.664C138.543 231.806 140.443 228.516 139.585 225.315C138.727 222.114 135.437 220.215 132.236 221.073C129.036 221.93 127.136 225.22 127.994 228.421C128.851 231.622 132.142 233.521 135.342 232.664Z" fill="#E04040"/>
<path d="M139.22 189.178C141.887 188.464 143.47 185.722 142.755 183.055C142.04 180.387 139.299 178.804 136.631 179.519C133.964 180.234 132.381 182.976 133.096 185.643C133.811 188.31 136.552 189.893 139.22 189.178Z" fill="#E04040"/>
<path d="M131.206 275.183C134.407 274.325 136.307 271.035 135.449 267.834C134.591 264.634 131.301 262.734 128.1 263.592C124.9 264.449 123 267.74 123.858 270.94C124.715 274.141 128.006 276.041 131.206 275.183Z" fill="#E04040"/>
<path d="M161.307 290.929C163.441 290.357 164.707 288.164 164.136 286.03C163.564 283.896 161.371 282.63 159.237 283.201C157.103 283.773 155.837 285.966 156.408 288.1C156.98 290.234 159.173 291.501 161.307 290.929Z" fill="#FF5E5E"/>
<path d="M170.62 267.728C172.754 267.156 174.02 264.963 173.448 262.829C172.876 260.695 170.683 259.429 168.549 260.001C166.415 260.572 165.149 262.766 165.721 264.9C166.293 267.033 168.486 268.3 170.62 267.728Z" fill="#FF5E5E"/>
<path d="M354.471 347.956C308.932 363.361 277.197 327.25 259.265 239.623" stroke="#FF5E5E" stroke-width="35" stroke-linecap="round"/>
<path d="M348 372.104C334.664 368.53 326.749 354.822 330.323 341.485C333.896 328.148 347.605 320.234 360.941 323.807C374.278 327.381 382.192 341.089 378.619 354.426C375.045 367.763 361.337 375.677 348 372.104Z" fill="#E04040"/>
<path d="M354.471 347.956C303.24 365.286 271.42 310.173 297.556 270.589C323.691 231.004 342.063 220.398 348.787 253.258C355.511 286.118 347.747 315.095 354.471 347.956Z" fill="#E04040"/>
<path d="M354.471 347.956C433.64 400.227 515.929 266.985 477.385 179.011C449.447 109.409 409.863 83.2733 365.356 133.464C320.849 183.655 344.904 267.747 354.471 347.956Z" fill="#FF5E5E"/>
<path opacity="0.5" d="M378.966 333.813C431.745 368.661 489.193 270.174 456.425 199.277C442.283 174.782 415.894 157.359 391.399 171.501C415.2 198.584 423.472 283.622 378.966 333.813Z" fill="#FFC2C2"/>
<path d="M364.658 232.664C361.457 231.806 359.557 228.516 360.415 225.315C361.273 222.114 364.563 220.215 367.764 221.073C370.964 221.93 372.864 225.22 372.006 228.421C371.149 231.622 367.858 233.521 364.658 232.664Z" fill="#E04040"/>
<path d="M360.78 189.178C358.113 188.464 356.53 185.722 357.245 183.055C357.96 180.387 360.701 178.804 363.369 179.519C366.036 180.234 367.619 182.976 366.904 185.643C366.189 188.31 363.448 189.893 360.78 189.178Z" fill="#E04040"/>
<path d="M368.794 275.183C365.593 274.325 363.693 271.035 364.551 267.834C365.409 264.634 368.699 262.734 371.9 263.592C375.1 264.449 377 267.74 376.142 270.94C375.285 274.141 371.994 276.041 368.794 275.183Z" fill="#E04040"/>
<path d="M338.693 290.929C336.559 290.357 335.293 288.164 335.864 286.03C336.436 283.896 338.629 282.63 340.763 283.201C342.897 283.773 344.163 285.966 343.592 288.1C343.02 290.234 340.827 291.501 338.693 290.929Z" fill="#FF5E5E"/>
<path d="M329.38 267.728C327.246 267.156 325.98 264.963 326.552 262.829C327.124 260.695 329.317 259.429 331.451 260.001C333.585 260.572 334.851 262.766 334.279 264.9C333.707 267.033 331.514 268.3 329.38 267.728Z" fill="#FF5E5E"/>
<path d="M160 210C160 110 340 110 340 210C340 300 300 310 250 310C200 310 160 300 160 210Z" fill="#FF5E5E"/>
<path d="M180 220C180 150 320 150 320 220C320 280 290 295 250 295C210 295 180 280 180 220Z" fill="#FF9A9A"/>
<path opacity="0.6" d="M213.106 161.591C223.775 158.732 231.034 151.225 229.319 144.824C227.603 138.422 217.564 135.55 206.894 138.409C196.225 141.268 188.966 148.775 190.682 155.176C192.397 161.578 202.437 164.45 213.106 161.591Z" fill="#FFC2C2"/>
<path d="M235 145C225 108.333 210 86.6667 190 80" stroke="#FF5E5E" stroke-width="6" stroke-linecap="round"/>
<path d="M265 145C275 108.333 290 86.6667 310 80" stroke="#FF5E5E" stroke-width="6" stroke-linecap="round"/>
<path opacity="0.4" d="M185 244C192.732 244 199 239.971 199 235C199 230.029 192.732 226 185 226C177.268 226 171 230.029 171 235C171 239.971 177.268 244 185 244Z" fill="#E04040"/>
<path opacity="0.4" d="M315 244C322.732 244 329 239.971 329 235C329 230.029 322.732 226 315 226C307.268 226 301 230.029 301 235C301 239.971 307.268 244 315 244Z" fill="#E04040"/>
<path d="M205 227C217.15 227 227 217.15 227 205C227 192.85 217.15 183 205 183C192.85 183 183 192.85 183 205C183 217.15 192.85 227 205 227Z" fill="#2C3A47"/>
<path d="M198 206C202.418 206 206 202.418 206 198C206 193.582 202.418 190 198 190C193.582 190 190 193.582 190 198C190 202.418 193.582 206 198 206Z" fill="white"/>
<path d="M212 215C213.657 215 215 213.657 215 212C215 210.343 213.657 209 212 209C210.343 209 209 210.343 209 212C209 213.657 210.343 215 212 215Z" fill="white"/>
<path d="M295 227C307.15 227 317 217.15 317 205C317 192.85 307.15 183 295 183C282.85 183 273 192.85 273 205C273 217.15 282.85 227 295 227Z" fill="#2C3A47"/>
<path d="M288 206C292.418 206 296 202.418 296 198C296 193.582 292.418 190 288 190C283.582 190 280 193.582 280 198C280 202.418 283.582 206 288 206Z" fill="white"/>
<path d="M302 215C303.657 215 305 213.657 305 212C305 210.343 303.657 209 302 209C300.343 209 299 210.343 299 212C299 213.657 300.343 215 302 215Z" fill="white"/>
<path d="M240 230C246.667 240 253.333 240 260 230" stroke="#2C3A47" stroke-width="5" stroke-linecap="round"/>
<path d="M243 235C247.667 246.333 252.333 246.333 257 235H243Z" fill="#FF5E5E"/>
</g>
<path d="M731.336 253.244V337.832H815.924V325.748H828.008V313.664H840.092V277.412H828.008V265.328H815.924V253.244H731.336ZM707.168 362V132.404H815.924V144.488H840.092V168.656H852.176V204.908H840.092V229.076H815.924V204.908H828.008V168.656H815.924V156.572H731.336V229.076H815.924V241.16H840.092V253.244H852.176V265.328H864.26V325.748H852.176V337.832H840.092V349.916H815.924V362H707.168ZM928.65 337.832V289.496H940.734V277.412H964.902V265.328H1025.32V253.244H1037.41V229.076H1025.32V216.992H964.902V229.076H952.818V241.16H928.65V216.992H940.734V204.908H964.902V192.824H1025.32V204.908H1049.49V229.076H1061.57V337.832H1073.66V362H1049.49V349.916H1037.41V337.832H1025.32V325.748H1037.41V277.412H1025.32V289.496H964.902V301.58H952.818V337.832H1025.32V349.916H1013.24V362H952.818V349.916H940.734V337.832H928.65ZM1125.91 362V132.404H1150.08V216.992H1162.16V241.16H1150.08V313.664H1162.16V337.832H1150.08V362H1125.91ZM1162.16 349.916V337.832H1222.58V325.748H1234.67V313.664H1246.75V241.16H1234.67V229.076H1222.58V216.992H1162.16V204.908H1174.25V192.824H1234.67V204.908H1246.75V216.992H1258.83V241.16H1270.92V313.664H1258.83V337.832H1246.75V349.916H1234.67V362H1174.25V349.916H1162.16ZM1347.34 337.832V301.58H1335.25V265.328H1323.17V229.076H1311.08V192.824H1335.25V229.076H1347.34V265.328H1359.42V301.58H1371.5V337.832H1395.67V301.58H1407.76V265.328H1419.84V229.076H1431.92V192.824H1456.09V229.076H1444.01V265.328H1431.92V301.58H1419.84V337.832H1407.76V362H1395.67V386.168H1383.59V398.252H1371.5V410.336H1323.17V386.168H1371.5V362H1359.42V337.832H1347.34ZM1520.4 337.832V313.664H1508.32V289.496H1496.23V204.908H1508.32V180.74H1520.4V156.572H1532.48V144.488H1556.65V132.404H1629.16V144.488H1665.41V156.572H1677.49V180.74H1689.58V216.992H1665.41V180.74H1653.32V168.656H1641.24V156.572H1556.65V168.656H1544.57V180.74H1532.48V204.908H1520.4V289.496H1532.48V313.664H1544.57V325.748H1556.65V337.832H1641.24V325.748H1653.32V313.664H1665.41V277.412H1689.58V313.664H1677.49V337.832H1665.41V349.916H1629.16V362H1556.65V349.916H1532.48V337.832H1520.4ZM1729.52 362V337.832H1765.77V156.572H1729.52V132.404H1765.77V144.488H1777.85V156.572H1789.94V337.832H1826.19V362H1729.52ZM1878.3 337.832V289.496H1890.39V277.412H1914.55V265.328H1974.97V253.244H1987.06V229.076H1974.97V216.992H1914.55V229.076H1902.47V241.16H1878.3V216.992H1890.39V204.908H1914.55V192.824H1974.97V204.908H1999.14V229.076H2011.23V337.832H2023.31V362H1999.14V349.916H1987.06V337.832H1974.97V325.748H1987.06V277.412H1974.97V289.496H1914.55V301.58H1902.47V337.832H1974.97V349.916H1962.89V362H1902.47V349.916H1890.39V337.832H1878.3ZM2099.73 337.832V289.496H2087.65V241.16H2075.56V192.824H2099.73V241.16H2111.81V289.496H2123.9V337.832H2135.98V289.496H2148.07V253.244H2160.15V216.992H2184.32V253.244H2196.4V289.496H2208.49V337.832H2220.57V289.496H2232.65V241.16H2244.74V192.824H2268.91V241.16H2256.82V289.496H2244.74V337.832H2232.65V362H2196.4V337.832H2184.32V289.496H2160.15V337.832H2148.07V362H2111.81V337.832H2099.73Z" fill="white"/>
</g>
<defs>
<clipPath id="clip0_1_68">
<rect width="2295" height="500" fill="white"/>
</clipPath>
<clipPath id="clip1_1_68">
<rect width="500" height="500" fill="white"/>
</clipPath>
</defs>
</svg>
